<?xml version="1.0" encoding="UTF-8" standalone="no"?>
<svg
   width="100"
   height="100"
   viewBox="0 0 100 100"
   fill="none"
   version="1.1"
   id="svg3"
   sodipodi:docname="icon.svg"
   inkscape:version="1.3.1 (9b9bdc1480, 2023-11-25, custom)"
   xmlns:inkscape="http://www.inkscape.org/namespaces/inkscape"
   xmlns:sodipodi="http://sodipodi.sourceforge.net/DTD/sodipodi-0.dtd"
   xmlns="http://www.w3.org/2000/svg"
   xmlns:svg="http://www.w3.org/2000/svg">
  <sodipodi:namedview
     id="namedview3"
     pagecolor="#ffffff"
     bordercolor="#000000"
     borderopacity="0.25"
     inkscape:showpageshadow="2"
     inkscape:pageopacity="0.0"
     inkscape:pagecheckerboard="0"
     inkscape:deskcolor="#d1d1d1"
     inkscape:zoom="8.08"
     inkscape:cx="32.79703"
     inkscape:cy="37.995049"
     inkscape:window-width="1920"
     inkscape:window-height="1011"
     inkscape:window-x="0"
     inkscape:window-y="0"
     inkscape:window-maximized="1"
     inkscape:current-layer="svg3"
     showgrid="false" />
  <g
     clip-path="url(#clip0_3358_14158)"
     id="g2"
     style="stroke-width:0.5"
     transform="scale(2)">
    <path
       fill-rule="evenodd"
       clip-rule="evenodd"
       d="M 25,0 C 38.8071,0 50,11.1929 50,25 50,38.8071 38.8071,50 25,50 11.1929,50 0,38.8071 0,25 0,11.1929 11.1929,0 25,0 Z m 0,48 c 2.105,0 4.5975,-1.8445 6.6822,-6.1878 1.047,-2.1812 1.9015,-4.8326 2.481,-7.8122 H 15.8368 c 0.5795,2.9796 1.434,5.631 2.481,7.8122 C 20.4025,46.1555 22.895,48 25,48 Z M 15.497,32 H 34.503 C 34.8246,29.7983 35,27.4483 35,25 35,22.5517 34.8246,20.2017 34.503,18 H 15.497 C 15.1754,20.2017 15,22.5517 15,25 c 0,2.4483 0.1754,4.7983 0.497,7 z m 0.3398,-16 c 0.5795,-2.9796 1.434,-5.631 2.481,-7.81221 C 20.4025,3.84454 22.895,2 25,2 c 2.105,0 4.5975,1.84454 6.6822,6.18779 1.047,2.18121 1.9015,4.83261 2.481,7.81221 z m 20.6864,2 C 36.8336,20.2212 37,22.5701 37,25 c 0,2.4299 -0.1664,4.7788 -0.4768,7 H 46.9154 C 47.6198,29.7928 48,27.4408 48,25 48,22.5592 47.6198,20.2072 46.9154,18 Z m 9.6493,-2 H 36.1989 C 35.1194,10.1737 33.0224,5.40134 30.3619,2.62832 37.5021,4.33335 43.3498,9.36805 46.1725,16 Z M 13.8011,16 H 3.82755 C 6.65024,9.36805 12.4979,4.33335 19.6381,2.62832 16.9776,5.40134 14.8806,10.1737 13.8011,16 Z M 3.08461,18 H 13.4768 C 13.1664,20.2212 13,22.5701 13,25 c 0,2.4299 0.1664,4.7788 0.4768,7 H 3.08461 C 2.3802,29.7928 2,27.4408 2,25 2,22.5592 2.3802,20.2072 3.08461,18 Z M 30.3619,47.3717 C 33.0224,44.5987 35.1194,39.8263 36.1989,34 h 9.9736 c -2.8227,6.632 -8.6704,11.6666 -15.8106,13.3717 z m -10.7238,0 C 12.4979,45.6666 6.65024,40.632 3.82755,34 h 9.97355 c 1.0795,5.8263 3.1765,10.5987 5.837,13.3717 z"
       fill="#00ceb3"
       id="path1"
       style="stroke-width:0.25" />
    <path
       fill-rule="evenodd"
       clip-rule="evenodd"
       d="M 25,0 C 38.8071,0 50,11.1929 50,25 50,38.8071 38.8071,50 25,50 11.1929,50 0,38.8071 0,25 0,11.1929 11.1929,0 25,0 Z m 0,48 c 2.105,0 4.5975,-1.8445 6.6822,-6.1878 1.047,-2.1812 1.9015,-4.8326 2.481,-7.8122 H 15.8368 c 0.5795,2.9796 1.434,5.631 2.481,7.8122 C 20.4025,46.1555 22.895,48 25,48 Z M 15.497,32 H 34.503 C 34.8246,29.7983 35,27.4483 35,25 35,22.5517 34.8246,20.2017 34.503,18 H 15.497 C 15.1754,20.2017 15,22.5517 15,25 c 0,2.4483 0.1754,4.7983 0.497,7 z m 0.3398,-16 c 0.5795,-2.9796 1.434,-5.631 2.481,-7.81221 C 20.4025,3.84454 22.895,2 25,2 c 2.105,0 4.5975,1.84454 6.6822,6.18779 1.047,2.18121 1.9015,4.83261 2.481,7.81221 z m 20.6864,2 C 36.8336,20.2212 37,22.5701 37,25 c 0,2.4299 -0.1664,4.7788 -0.4768,7 H 46.9154 C 47.6198,29.7928 48,27.4408 48,25 48,22.5592 47.6198,20.2072 46.9154,18 Z m 9.6493,-2 H 36.1989 C 35.1194,10.1737 33.0224,5.40134 30.3619,2.62832 37.5021,4.33335 43.3498,9.36805 46.1725,16 Z M 13.8011,16 H 3.82755 C 6.65024,9.36805 12.4979,4.33335 19.6381,2.62832 16.9776,5.40134 14.8806,10.1737 13.8011,16 Z M 3.08461,18 H 13.4768 C 13.1664,20.2212 13,22.5701 13,25 c 0,2.4299 0.1664,4.7788 0.4768,7 H 3.08461 C 2.3802,29.7928 2,27.4408 2,25 2,22.5592 2.3802,20.2072 3.08461,18 Z M 30.3619,47.3717 C 33.0224,44.5987 35.1194,39.8263 36.1989,34 h 9.9736 c -2.8227,6.632 -8.6704,11.6666 -15.8106,13.3717 z m -10.7238,0 C 12.4979,45.6666 6.65024,40.632 3.82755,34 h 9.97355 c 1.0795,5.8263 3.1765,10.5987 5.837,13.3717 z"
       fill="url(#paint0_linear_3358_14158)"
       fill-opacity="0.2"
       id="path2"
       style="fill:url(#paint0_linear_3358_14158);stroke-width:0.5" />
  </g>
  <defs
     id="defs3">
    <linearGradient
       id="swatch19"
       inkscape:swatch="solid">
      <stop
         style="stop-color:#000000;stop-opacity:1;"
         offset="0"
         id="stop20" />
    </linearGradient>
    <linearGradient
       id="paint0_linear_3358_14158"
       x1="0"
       y1="0"
       x2="58.823502"
       y2="14.7059"
       gradientUnits="userSpaceOnUse">
      <stop
         stop-color="white"
         id="stop2" />
      <stop
         offset="1"
         stop-color="white"
         stop-opacity="0"
         id="stop3" />
    </linearGradient>
    <clipPath
       id="clip0_3358_14158">
      <rect
         width="50"
         height="50"
         fill="#ffffff"
         id="rect3"
         x="0"
         y="0" />
    </clipPath>
    <mask
       maskUnits="userSpaceOnUse"
       id="mask10-2">
      <rect
         style="fill:#ffffff;stroke:#000000;stroke-width:0.377953;stroke-dasharray:none;stroke-opacity:1"
         id="rect10-2"
         width="122.62693"
         height="31.212755"
         x="0.22639813"
         y="40.430393" />
    </mask>
    <mask
       maskUnits="userSpaceOnUse"
       id="mask5-6">
      <rect
         style="fill:#f9f9f9;stroke:#000000;stroke-width:0.0952825"
         id="rect6-2"
         width="122.95293"
         height="39.68045"
         x="-0.1780867"
         y="71.642944" />
    </mask>
    <mask
       maskUnits="userSpaceOnUse"
       id="mask7-2">
      <rect
         style="fill:#f9f9f9;stroke:#000000;stroke-width:0.101527"
         id="rect8-3"
         width="122.98656"
         height="40.641251"
         x="0.20128733"
         y="0.57753664" />
    </mask>
    <filter
       style="color-interpolation-filters:sRGB"
       inkscape:label="Drop Shadow"
       id="filter4"
       x="-0.03549253"
       y="-0.032475693"
       width="1.059408"
       height="1.0572474">
      <feFlood
         result="flood"
         in="SourceGraphic"
         flood-opacity="0.498039"
         flood-color="rgb(0,0,0)"
         id="feFlood3" />
      <feGaussianBlur
         result="blur"
         in="SourceGraphic"
         stdDeviation="1.000000"
         id="feGaussianBlur3" />
      <feOffset
         result="offset"
         in="blur"
         dx="-1.000000"
         dy="-1.000000"
         id="feOffset3" />
      <feComposite
         result="comp1"
         operator="in"
         in="flood"
         in2="offset"
         id="feComposite3" />
      <feComposite
         result="comp2"
         operator="over"
         in="SourceGraphic"
         in2="comp1"
         id="feComposite4" />
    </filter>
  </defs>
  <g
     id="g1"
     style="stroke:#000000;stroke-opacity:1">
    <g
       id="g10"
       transform="matrix(0.47264623,0,0,0.47264418,4.0614635,4.8528556)"
       style="stroke-width:2.11575;filter:url(#filter4);stroke:#000000;stroke-opacity:1">
      <path
         class="cls-1"
         d="m 123.13012,58.346519 -35.000004,52.920001 -27.88,-17.900001 1.85,-3.91 20.43,13.000001 0.25,0.17 a 4.15,4.15 0 0 0 5.73,-1.32 l 1.13,-1.800001 h 0.06 l 5.27,-8.57 24.000004,-35.3 4.21,2.69 z m -87.660004,-42.75 -0.4,5.28 -4.82,-0.21 h -0.43 l -0.18,10.24 0.29,7.61 h -7.2 l 0.36,-6.88 -0.18,-11 h -0.47 l -4.82,0.21 -0.43,-0.5 0.4,-5.29 h 17.48 l 0.4,0.51 z m 20.93,22.92 h -7.35 l -0.65,-3.88 v -0.11 l -3.55,-0.07 -3,0.15 -0.6,3.91 h -7.1 l 7.1,-23.43 h 8.76 l 6.41,23.43 z m -9.15,-9.27 -1.6,-7.68 h -0.4 l -2,7.68 h 2 z m 25.34,-3.12 7.06,12.39 h -8.62 l -1.23,-2.86 -2.1,-3.81 -2.68,4.17 -1.16,2.5 h -7.35 l 7,-11.26 -7.26,-12.17 h 8.69 l 1.31,2.93 2.06,3.75 2.36,-4.09 1.08,-2.54 h 7.57 l -6.7,11 z m -23.75,56.92 -0.59,-0.56 -8.3,8.53 a 2.09,2.09 0 0 1 -0.14,0.17 2.51,2.51 0 0 1 -3.55,0 l -8.7,-8.7 -9,8.54 v 0 a 2.51,2.51 0 0 1 -3.5,-0.05 l -8.51,-8.62 -1.78,2 a 2.51,2.51 0 0 1 -4.51999997,-1.44 V 2.2765194 A 2.51,2.51 0 0 1 2.760116,-0.23348062 h 91.36 a 2.5,2.5 0 0 1 2.5,2.51000002 V 21.456519 l -1.23,-0.79 a 4.72,4.72 0 0 0 -3.78,-0.6 V 4.7665194 h -86.36 V 76.466519 a 2.5,2.5 0 0 1 2.8,0.32 0.8,0.8 0 0 1 0.13,0.13 h 0.07 l 8.66,8.85 9,-8.53 a 2.49,2.49 0 0 1 3.49,0 v 0 l 8.63,8.63 8.35,-8.6 a 2.49,2.49 0 0 1 3.49,-0.1 v 0 l 1.58,1.46 -2,2.94 a 4.74,4.74 0 0 0 -0.63,1.49 z m 11.56,-18 h -41 a 1.85,1.85 0 0 1 0,-3.7 h 43.44 z m 8.14,-12.28 h -49.7 a 1.85,1.85 0 1 1 0,-3.7 h 52.14 z m 51.310004,-5.84 -35.000004,52.84 -27.92,-17.86 35,-52.92 27.910004,17.9 z m -25.520004,14.41 a 7.54,7.54 0 1 1 -10.3,-2.77 7.53,7.53 0 0 1 10.3,2.77 z m 15.520004,-8.2 -23.470004,34.92 a 4.91,4.91 0 0 0 -6.77,1.49 l -11,-7.07 a 4.9,4.9 0 0 0 -1.49,-6.77 l 23.44,-34.94 a 4.89,4.89 0 0 0 6.76,-1.48 l 11.050004,7.07 a 4.9,4.9 0 0 0 1.48,6.77 z"
         id="path1-2-9"
         clip-path="none"
         style="display:inline;fill:#008000;fill-rule:evenodd;stroke:#000000;stroke-width:0.985278;stroke-dasharray:none;stroke-opacity:1"
         mask="url(#mask10-2)"
         transform="matrix(0.81160427,0,0,0.81160427,-0.05355333,0.03003815)" />
      <path
         class="cls-1"
         d="M 122.88,58.58 87.88,111.5 60,93.6 l 1.85,-3.91 20.43,13 0.25,0.17 a 4.15,4.15 0 0 0 5.73,-1.32 l 1.13,-1.8 h 0.06 l 5.27,-8.57 24,-35.3 4.21,2.69 z M 35.22,15.83 34.82,21.11 30,20.9 h -0.43 l -0.18,10.24 0.29,7.61 h -7.2 l 0.36,-6.88 -0.18,-11 h -0.47 l -4.82,0.21 -0.43,-0.5 0.4,-5.29 h 17.48 l 0.4,0.51 z M 56.15,38.75 H 48.8 l -0.65,-3.88 v -0.11 l -3.55,-0.07 -3,0.15 -0.6,3.91 H 33.9 L 41,15.32 h 8.76 l 6.41,23.43 z M 47,29.48 45.4,21.8 H 45 l -2,7.68 h 2 z m 25.34,-3.12 7.06,12.39 h -8.62 l -1.23,-2.86 -2.1,-3.81 -2.68,4.17 -1.16,2.5 h -7.35 l 7,-11.26 L 56,15.32 h 8.69 L 66,18.25 68.06,22 70.42,17.91 71.5,15.37 h 7.57 l -6.7,11 z M 48.59,83.28 48,82.72 39.7,91.25 a 2.09,2.09 0 0 1 -0.14,0.17 2.51,2.51 0 0 1 -3.55,0 l -8.7,-8.7 -9,8.54 v 0 a 2.51,2.51 0 0 1 -3.5,-0.05 l -8.51,-8.62 -1.78,2 A 2.51,2.51 0 0 1 0,83.15 V 2.51 A 2.51,2.51 0 0 1 2.51,0 h 91.36 a 2.5,2.5 0 0 1 2.5,2.51 V 21.69 L 95.14,20.9 A 4.72,4.72 0 0 0 91.36,20.3 V 5 H 5 v 71.7 a 2.5,2.5 0 0 1 2.8,0.32 0.8,0.8 0 0 1 0.13,0.13 H 8 l 8.66,8.85 9,-8.53 a 2.49,2.49 0 0 1 3.49,0 v 0 l 8.63,8.63 8.35,-8.6 a 2.49,2.49 0 0 1 3.49,-0.1 v 0 l 1.58,1.46 -2,2.94 a 4.74,4.74 0 0 0 -0.63,1.49 z m 11.56,-18 h -41 a 1.85,1.85 0 0 1 0,-3.7 H 62.59 Z M 68.29,53 h -49.7 a 1.85,1.85 0 1 1 0,-3.7 H 70.73 Z M 119.6,47.16 84.6,100 56.68,82.14 l 35,-52.92 27.91,17.9 z M 94.08,61.57 a 7.54,7.54 0 1 1 -10.3,-2.77 7.53,7.53 0 0 1 10.3,2.77 z m 15.52,-8.2 -23.47,34.92 a 4.91,4.91 0 0 0 -6.77,1.49 l -11,-7.07 A 4.9,4.9 0 0 0 66.87,75.94 L 90.31,41 a 4.89,4.89 0 0 0 6.76,-1.48 l 11.05,7.07 a 4.9,4.9 0 0 0 1.48,6.77 z"
         id="path1-1"
         clip-path="none"
         style="display:inline;fill:#ff0000;fill-rule:evenodd;stroke:#000000;stroke-width:0.985278;stroke-dasharray:none;stroke-opacity:1"
         mask="url(#mask5-6)"
         transform="matrix(0.81160427,0,0,0.81160427,0.05286055,-0.03963406)" />
      <path
         class="cls-1"
         d="m 123.07555,58.613541 -34.999991,52.920009 -27.88,-17.900009 1.85,-3.91 20.43,13.000009 0.25,0.17 a 4.15,4.15 0 0 0 5.73,-1.32 l 1.13,-1.800009 h 0.06 l 5.27,-8.57 23.999991,-35.3 4.21,2.69 z m -87.659991,-42.75 -0.4,5.28 -4.82,-0.21 h -0.43 l -0.18,10.24 0.29,7.61 h -7.2 l 0.36,-6.88 -0.18,-11 h -0.47 l -4.82,0.21 -0.43,-0.5 0.4,-5.29 h 17.48 l 0.4,0.51 z m 20.93,22.92 h -7.35 l -0.65,-3.88 v -0.11 l -3.55,-0.07 -3,0.15 -0.6,3.91 h -7.1 l 7.1,-23.43 h 8.76 l 6.41,23.43 z m -9.15,-9.27 -1.6,-7.68 h -0.4 l -2,7.68 h 2 z m 25.34,-3.12 7.06,12.39 h -8.62 l -1.23,-2.86 -2.1,-3.81 -2.68,4.17 -1.16,2.5 h -7.35 l 7,-11.26 -7.26,-12.17 h 8.69 l 1.31,2.93 2.06,3.75 2.36,-4.09 1.08,-2.54 h 7.57 l -6.7,11 z m -23.75,56.92 -0.59,-0.56 -8.3,8.53 a 2.09,2.09 0 0 1 -0.14,0.17 2.51,2.51 0 0 1 -3.55,0 l -8.7,-8.7 -9,8.54 v 0 a 2.51,2.51 0 0 1 -3.5,-0.05 l -8.5099999,-8.62 -1.78,2 a 2.51,2.51 0 0 1 -4.51999999,-1.44 V 2.5435416 A 2.51,2.51 0 0 1 2.7055591,0.03354155 H 94.065559 a 2.5,2.5 0 0 1 2.5,2.51000005 V 21.723541 l -1.23,-0.79 a 4.72,4.72 0 0 0 -3.78,-0.6 V 5.0335416 H 5.1955591 V 76.733541 a 2.5,2.5 0 0 1 2.8,0.32 0.8,0.8 0 0 1 0.13,0.13 h 0.07 l 8.6599999,8.85 9,-8.53 a 2.49,2.49 0 0 1 3.49,0 v 0 l 8.63,8.63 8.35,-8.6 a 2.49,2.49 0 0 1 3.49,-0.1 v 0 l 1.58,1.46 -2,2.94 a 4.74,4.74 0 0 0 -0.63,1.49 z m 11.56,-18 h -41 a 1.85,1.85 0 0 1 0,-3.7 h 43.44 z m 8.14,-12.28 h -49.7 a 1.85,1.85 0 1 1 0,-3.7 h 52.14 z m 51.309991,-5.84 -34.999991,52.840009 -27.92,-17.860009 35,-52.92 27.909991,17.9 z m -25.519991,14.41 a 7.54,7.54 0 1 1 -10.3,-2.77 7.53,7.53 0 0 1 10.3,2.77 z m 15.519991,-8.2 -23.469991,34.92 a 4.91,4.91 0 0 0 -6.77,1.49 l -11,-7.07 a 4.9,4.9 0 0 0 -1.49,-6.77 l 23.44,-34.94 a 4.89,4.89 0 0 0 6.76,-1.48 l 11.049991,7.07 a 4.9,4.9 0 0 0 1.48,6.77 z"
         id="path1-2-9-5"
         clip-path="none"
         style="display:inline;fill:#ffffff;fill-rule:evenodd;stroke:#000000;stroke-width:0.985278;stroke-dasharray:none;stroke-opacity:1"
         mask="url(#mask7-2)"
         transform="matrix(0.81160427,0,0,0.81160427,-0.07145644,-0.67161505)" />
    </g>
  </g>
</svg>
